<svg xmlns="http://www.w3.org/2000/svg" xmlns:xlink="http://www.w3.org/1999/xlink" width="1080" zoomAndPan="magnify" viewBox="0 0 810 809.999993" height="1080" preserveAspectRatio="xMidYMid meet" version="1.0"><defs><g/><clipPath id="a1675338fd"><path d="M 52 55 L 770 55 L 770 772.832031 L 52 772.832031 Z M 52 55 " clip-rule="nonzero"/></clipPath></defs><path fill="#fefefe" d="M 762.570312 416.589844 C 762.570312 422.371094 762.429688 428.144531 762.144531 433.914062 C 761.863281 439.6875 761.4375 445.449219 760.871094 451.199219 C 760.304688 456.949219 759.597656 462.683594 758.75 468.398438 C 757.902344 474.113281 756.914062 479.804688 755.789062 485.472656 C 754.660156 491.140625 753.394531 496.777344 751.992188 502.382812 C 750.585938 507.988281 749.046875 513.554688 747.371094 519.085938 C 745.691406 524.613281 743.882812 530.097656 741.933594 535.539062 C 739.988281 540.980469 737.910156 546.371094 735.699219 551.707031 C 733.488281 557.046875 731.148438 562.328125 728.679688 567.550781 C 726.207031 572.777344 723.613281 577.9375 720.886719 583.03125 C 718.164062 588.128906 715.316406 593.152344 712.347656 598.109375 C 709.378906 603.066406 706.289062 607.945312 703.078125 612.75 C 699.867188 617.554688 696.542969 622.28125 693.101562 626.921875 C 689.660156 631.5625 686.109375 636.117188 682.441406 640.582031 C 678.777344 645.050781 675.003906 649.421875 671.125 653.707031 C 667.246094 657.988281 663.265625 662.171875 659.179688 666.257812 C 655.09375 670.34375 650.910156 674.324219 646.628906 678.207031 C 642.351562 682.085938 637.976562 685.859375 633.511719 689.527344 C 629.046875 693.191406 624.492188 696.746094 619.851562 700.1875 C 615.210938 703.628906 610.488281 706.957031 605.6875 710.167969 C 600.882812 713.375 596.003906 716.46875 591.046875 719.4375 C 586.09375 722.410156 581.066406 725.257812 575.972656 727.980469 C 570.878906 730.703125 565.71875 733.300781 560.496094 735.773438 C 555.273438 738.242188 549.996094 740.582031 544.65625 742.792969 C 539.320312 745.007812 533.929688 747.085938 528.492188 749.03125 C 523.050781 750.976562 517.570312 752.789062 512.039062 754.46875 C 506.511719 756.144531 500.945312 757.6875 495.339844 759.089844 C 489.738281 760.492188 484.101562 761.757812 478.4375 762.886719 C 472.769531 764.015625 467.078125 765 461.367188 765.851562 C 455.652344 766.699219 449.917969 767.40625 444.167969 767.972656 C 438.421875 768.539062 432.660156 768.960938 426.890625 769.246094 C 421.121094 769.53125 415.347656 769.671875 409.570312 769.671875 C 403.792969 769.671875 398.019531 769.53125 392.25 769.246094 C 386.480469 768.960938 380.71875 768.539062 374.96875 767.972656 C 369.21875 767.40625 363.488281 766.699219 357.773438 765.851562 C 352.058594 765 346.367188 764.015625 340.703125 762.886719 C 335.035156 761.757812 329.402344 760.492188 323.796875 759.089844 C 318.195312 757.6875 312.628906 756.144531 307.097656 754.46875 C 301.570312 752.789062 296.085938 750.976562 290.648438 749.03125 C 285.207031 747.085938 279.820312 745.007812 274.480469 742.792969 C 269.144531 740.582031 263.863281 738.242188 258.640625 735.773438 C 253.421875 733.300781 248.261719 730.703125 243.167969 727.980469 C 238.070312 725.257812 233.046875 722.410156 228.089844 719.4375 C 223.136719 716.46875 218.257812 713.375 213.453125 710.167969 C 208.648438 706.957031 203.925781 703.628906 199.289062 700.1875 C 194.648438 696.746094 190.09375 693.191406 185.628906 689.527344 C 181.164062 685.859375 176.789062 682.085938 172.507812 678.207031 C 168.226562 674.324219 164.046875 670.34375 159.960938 666.257812 C 155.875 662.171875 151.894531 657.988281 148.011719 653.707031 C 144.132812 649.421875 140.363281 645.050781 136.695312 640.582031 C 133.03125 636.117188 129.476562 631.5625 126.035156 626.921875 C 122.59375 622.28125 119.269531 617.554688 116.058594 612.75 C 112.851562 607.945312 109.761719 603.066406 106.789062 598.109375 C 103.820312 593.152344 100.972656 588.128906 98.25 583.03125 C 95.527344 577.9375 92.929688 572.777344 90.460938 567.550781 C 87.992188 562.328125 85.652344 557.046875 83.441406 551.707031 C 81.230469 546.371094 79.148438 540.980469 77.203125 535.539062 C 75.257812 530.097656 73.445312 524.613281 71.769531 519.085938 C 70.09375 513.554688 68.550781 507.988281 67.148438 502.382812 C 65.746094 496.777344 64.480469 491.140625 63.351562 485.472656 C 62.226562 479.804688 61.238281 474.113281 60.390625 468.398438 C 59.542969 462.683594 58.835938 456.949219 58.269531 451.199219 C 57.703125 445.449219 57.277344 439.6875 56.996094 433.914062 C 56.710938 428.144531 56.570312 422.371094 56.570312 416.589844 C 56.570312 410.8125 56.710938 405.039062 56.996094 399.265625 C 57.277344 393.496094 57.703125 387.734375 58.269531 381.984375 C 58.835938 376.230469 59.542969 370.5 60.390625 364.78125 C 61.238281 359.066406 62.226562 353.375 63.351562 347.707031 C 64.480469 342.039062 65.746094 336.40625 67.148438 330.800781 C 68.550781 325.195312 70.09375 319.625 71.769531 314.097656 C 73.445312 308.566406 75.257812 303.082031 77.203125 297.640625 C 79.148438 292.199219 81.230469 286.8125 83.441406 281.472656 C 85.652344 276.132812 87.992188 270.851562 90.460938 265.628906 C 92.929688 260.40625 95.527344 255.246094 98.25 250.148438 C 100.972656 245.054688 103.820312 240.027344 106.789062 235.070312 C 109.761719 230.113281 112.851562 225.234375 116.058594 220.429688 C 119.269531 215.625 122.59375 210.902344 126.035156 206.261719 C 129.476562 201.621094 133.03125 197.066406 136.695312 192.597656 C 140.363281 188.132812 144.132812 183.757812 148.011719 179.476562 C 151.894531 175.195312 155.875 171.011719 159.960938 166.925781 C 164.046875 162.839844 168.226562 158.855469 172.507812 154.976562 C 176.789062 151.09375 181.164062 147.320312 185.628906 143.65625 C 190.09375 139.988281 194.648438 136.4375 199.289062 132.992188 C 203.925781 129.550781 208.648438 126.226562 213.453125 123.015625 C 218.257812 119.804688 223.136719 116.714844 228.089844 113.742188 C 233.046875 110.773438 238.070312 107.925781 243.167969 105.203125 C 248.261719 102.476562 253.421875 99.878906 258.640625 97.410156 C 263.863281 94.9375 269.144531 92.597656 274.480469 90.386719 C 279.820312 88.175781 285.207031 86.097656 290.648438 84.148438 C 296.085938 82.203125 301.570312 80.390625 307.097656 78.714844 C 312.628906 77.035156 318.195312 75.496094 323.796875 74.089844 C 329.402344 72.6875 335.035156 71.421875 340.703125 70.292969 C 346.367188 69.167969 352.058594 68.179688 357.773438 67.332031 C 363.488281 66.484375 369.21875 65.777344 374.96875 65.210938 C 380.71875 64.644531 386.480469 64.21875 392.25 63.933594 C 398.019531 63.652344 403.792969 63.511719 409.570312 63.511719 C 415.347656 63.511719 421.121094 63.652344 426.890625 63.933594 C 432.660156 64.21875 438.421875 64.644531 444.167969 65.210938 C 449.917969 65.777344 455.652344 66.484375 461.367188 67.332031 C 467.078125 68.179688 472.769531 69.167969 478.4375 70.292969 C 484.101562 71.421875 489.738281 72.6875 495.339844 74.089844 C 500.945312 75.496094 506.511719 77.035156 512.039062 78.714844 C 517.570312 80.390625 523.050781 82.203125 528.492188 84.148438 C 533.929688 86.097656 539.320312 88.175781 544.65625 90.386719 C 549.996094 92.597656 555.273438 94.9375 560.496094 97.410156 C 565.71875 99.878906 570.878906 102.476562 575.972656 105.203125 C 581.066406 107.925781 586.09375 110.773438 591.046875 113.742188 C 596.003906 116.714844 600.882812 119.804688 605.6875 123.015625 C 610.488281 126.226562 615.210938 129.550781 619.851562 132.992188 C 624.492188 136.4375 629.046875 139.988281 633.511719 143.65625 C 637.976562 147.320312 642.351562 151.09375 646.628906 154.976562 C 650.910156 158.855469 655.09375 162.839844 659.179688 166.925781 C 663.265625 171.011719 667.246094 175.195312 671.125 179.476562 C 675.003906 183.757812 678.777344 188.132812 682.441406 192.597656 C 686.109375 197.066406 689.660156 201.621094 693.101562 206.261719 C 696.542969 210.902344 699.867188 215.625 703.078125 220.429688 C 706.289062 225.234375 709.378906 230.113281 712.347656 235.070312 C 715.316406 240.027344 718.164062 245.054688 720.886719 250.148438 C 723.613281 255.246094 726.207031 260.40625 728.679688 265.628906 C 731.148438 270.851562 733.488281 276.132812 735.699219 281.472656 C 737.910156 286.8125 739.988281 292.199219 741.933594 297.640625 C 743.882812 303.082031 745.691406 308.566406 747.371094 314.097656 C 749.046875 319.625 750.585938 325.195312 751.992188 330.800781 C 753.394531 336.40625 754.660156 342.039062 755.789062 347.707031 C 756.914062 353.375 757.902344 359.066406 758.75 364.78125 C 759.597656 370.5 760.304688 376.230469 760.871094 381.984375 C 761.4375 387.734375 761.863281 393.496094 762.144531 399.265625 C 762.429688 405.039062 762.570312 410.8125 762.570312 416.589844 Z M 762.570312 416.589844 " fill-opacity="1" fill-rule="nonzero"/><path fill="#212121" d="M 727.539062 42.722656 C 728.601562 39.953125 731.71875 38.570312 734.5 39.644531 C 737.269531 40.722656 738.65625 43.84375 737.578125 46.613281 C 737.355469 47.1875 661.820312 245.945312 477.382812 323.164062 C 474.628906 324.296875 471.480469 322.996094 470.335938 320.253906 C 469.1875 317.496094 470.503906 314.335938 473.246094 313.1875 C 653.402344 237.777344 727.3125 43.28125 727.539062 42.722656 Z M 727.539062 42.722656 " fill-opacity="1" fill-rule="nonzero"/><g clip-path="url(#a1675338fd)"><path fill="#ed3237" d="M 411.011719 55.4375 C 510.039062 55.4375 599.699219 95.597656 664.589844 160.503906 C 729.496094 225.425781 769.632812 315.105469 769.632812 414.15625 C 769.632812 513.207031 729.496094 602.886719 664.589844 667.792969 C 599.699219 732.714844 510.039062 772.859375 411.011719 772.859375 C 311.980469 772.859375 222.320312 732.714844 157.417969 667.792969 C 92.511719 602.886719 52.375 513.207031 52.375 414.15625 C 52.375 315.105469 92.511719 225.425781 157.417969 160.503906 C 222.320312 95.597656 311.980469 55.4375 411.011719 55.4375 Z M 628.046875 197.070312 C 572.496094 141.507812 495.761719 107.152344 411.011719 107.152344 C 326.246094 107.152344 249.507812 141.507812 193.960938 197.070312 C 138.425781 252.617188 104.0625 329.375 104.0625 414.15625 C 104.0625 498.941406 138.425781 575.695312 193.960938 631.242188 C 249.507812 686.804688 326.246094 721.160156 411.011719 721.160156 C 495.761719 721.160156 572.496094 686.804688 628.046875 631.242188 C 683.582031 575.695312 717.945312 498.941406 717.945312 414.15625 C 717.945312 329.375 683.582031 252.617188 628.046875 197.070312 Z M 628.046875 197.070312 " fill-opacity="1" fill-rule="nonzero"/></g><path fill="#212121" d="M 614.578125 307.382812 L 358.691406 307.382812 C 358.691406 307.382812 326.945312 298.933594 304.332031 308.390625 C 281.71875 317.847656 253.355469 342.828125 270.90625 395.511719 C 288.472656 448.175781 302.304688 410.367188 312.777344 397.539062 C 323.238281 384.699219 341.8125 428.59375 350.582031 434.007812 C 359.363281 439.40625 369.824219 455.605469 417.09375 390.097656 L 428.5625 379.296875 C 428.5625 379.296875 555.839844 395.847656 646.984375 333.710938 C 573.390625 328.980469 561.238281 327.640625 561.238281 327.640625 C 561.238281 327.640625 586.902344 323.582031 614.578125 307.382812 Z M 394.128906 376.933594 L 372.523438 375.578125 L 385.011719 402.589844 C 385.011719 402.589844 399.878906 378.109375 394.128906 376.933594 Z M 394.128906 376.933594 " fill-opacity="1" fill-rule="evenodd"/><path fill="#212121" d="M 464.210938 364.457031 C 464.378906 361.492188 466.921875 359.210938 469.902344 359.390625 C 472.867188 359.558594 475.132812 362.121094 474.964844 365.085938 L 469.371094 454.820312 L 645.515625 626.320312 C 647.640625 628.390625 647.683594 631.800781 645.613281 633.929688 C 643.542969 636.070312 640.128906 636.109375 637.988281 634.039062 L 460.195312 460.921875 C 459.050781 459.871094 458.363281 458.316406 458.460938 456.640625 Z M 464.210938 364.457031 " fill-opacity="1" fill-rule="nonzero"/><path fill="#212121" d="M 407.457031 374.78125 C 406.046875 372.164062 407.011719 368.890625 409.613281 367.476562 C 412.226562 366.050781 415.5 367.015625 416.910156 369.632812 L 442.519531 416.226562 L 657.890625 537.703125 C 660.476562 539.15625 661.386719 542.429688 659.933594 545.019531 C 658.476562 547.605469 655.207031 548.527344 652.617188 547.058594 L 436.238281 425.039062 C 435.246094 424.5625 434.367188 423.792969 433.792969 422.746094 C 433.734375 422.621094 410.144531 379.703125 407.457031 374.78125 Z M 407.457031 374.78125 " fill-opacity="1" fill-rule="nonzero"/><path fill="#212121" d="M 301.855469 384.710938 C 301.476562 381.757812 303.5625 379.058594 306.5 378.683594 C 309.449219 378.289062 312.148438 380.375 312.539062 383.328125 L 334.148438 546.753906 C 334.21875 547.339844 334.203125 547.925781 334.089844 548.472656 C 333.253906 553.957031 314.132812 676.410156 272.445312 735.582031 C 270.738281 738.03125 267.367188 738.601562 264.933594 736.898438 C 262.5 735.191406 261.914062 731.820312 263.632812 729.386719 C 302.933594 673.570312 321.730469 557.875 323.363281 547.394531 Z M 301.855469 384.710938 " fill-opacity="1" fill-rule="nonzero"/><path fill="#212121" d="M 302.472656 431.796875 C 302.472656 432.898438 302.417969 433.996094 302.308594 435.089844 C 302.203125 436.183594 302.039062 437.273438 301.824219 438.351562 C 301.609375 439.429688 301.34375 440.496094 301.023438 441.550781 C 300.707031 442.601562 300.335938 443.636719 299.914062 444.65625 C 299.492188 445.671875 299.023438 446.664062 298.503906 447.636719 C 297.984375 448.605469 297.421875 449.546875 296.808594 450.464844 C 296.199219 451.378906 295.542969 452.261719 294.847656 453.113281 C 294.148438 453.960938 293.410156 454.777344 292.632812 455.554688 C 291.855469 456.332031 291.039062 457.070312 290.1875 457.769531 C 289.339844 458.46875 288.457031 459.121094 287.542969 459.734375 C 286.625 460.34375 285.683594 460.910156 284.714844 461.429688 C 283.742188 461.949219 282.75 462.417969 281.734375 462.839844 C 280.71875 463.257812 279.683594 463.628906 278.628906 463.949219 C 277.578125 464.269531 276.511719 464.535156 275.433594 464.75 C 274.351562 464.964844 273.265625 465.125 272.171875 465.234375 C 271.078125 465.34375 269.980469 465.394531 268.878906 465.394531 C 267.777344 465.394531 266.679688 465.34375 265.585938 465.234375 C 264.492188 465.125 263.402344 464.964844 262.324219 464.75 C 261.246094 464.535156 260.179688 464.269531 259.128906 463.949219 C 258.074219 463.628906 257.039062 463.257812 256.023438 462.839844 C 255.007812 462.417969 254.011719 461.949219 253.042969 461.429688 C 252.074219 460.910156 251.128906 460.34375 250.214844 459.734375 C 249.300781 459.121094 248.417969 458.46875 247.566406 457.769531 C 246.71875 457.070312 245.902344 456.332031 245.125 455.554688 C 244.347656 454.777344 243.609375 453.960938 242.910156 453.113281 C 242.214844 452.261719 241.558594 451.378906 240.949219 450.464844 C 240.335938 449.546875 239.769531 448.605469 239.253906 447.636719 C 238.734375 446.664062 238.265625 445.671875 237.84375 444.65625 C 237.421875 443.636719 237.050781 442.601562 236.734375 441.550781 C 236.414062 440.496094 236.144531 439.429688 235.929688 438.351562 C 235.71875 437.273438 235.554688 436.183594 235.449219 435.089844 C 235.339844 433.996094 235.285156 432.898438 235.285156 431.796875 C 235.285156 430.695312 235.339844 429.597656 235.449219 428.503906 C 235.554688 427.40625 235.71875 426.320312 235.929688 425.242188 C 236.144531 424.160156 236.414062 423.09375 236.734375 422.042969 C 237.050781 420.988281 237.421875 419.953125 237.84375 418.9375 C 238.265625 417.921875 238.734375 416.929688 239.253906 415.957031 C 239.769531 414.988281 240.335938 414.042969 240.949219 413.128906 C 241.558594 412.214844 242.214844 411.332031 242.910156 410.480469 C 243.609375 409.628906 244.347656 408.816406 245.125 408.039062 C 245.902344 407.257812 246.71875 406.519531 247.566406 405.824219 C 248.417969 405.125 249.300781 404.46875 250.214844 403.859375 C 251.128906 403.246094 252.074219 402.683594 253.042969 402.164062 C 254.011719 401.644531 255.007812 401.175781 256.023438 400.753906 C 257.039062 400.332031 258.074219 399.960938 259.128906 399.644531 C 260.179688 399.324219 261.246094 399.054688 262.324219 398.839844 C 263.402344 398.628906 264.492188 398.464844 265.585938 398.359375 C 266.679688 398.25 267.777344 398.195312 268.878906 398.195312 C 269.980469 398.195312 271.078125 398.25 272.171875 398.359375 C 273.265625 398.464844 274.351562 398.628906 275.433594 398.839844 C 276.511719 399.054688 277.578125 399.324219 278.628906 399.644531 C 279.683594 399.960938 280.71875 400.332031 281.734375 400.753906 C 282.75 401.175781 283.742188 401.644531 284.714844 402.164062 C 285.683594 402.683594 286.625 403.246094 287.542969 403.859375 C 288.457031 404.46875 289.339844 405.125 290.1875 405.824219 C 291.039062 406.519531 291.855469 407.257812 292.632812 408.039062 C 293.410156 408.816406 294.148438 409.628906 294.847656 410.480469 C 295.542969 411.332031 296.199219 412.214844 296.808594 413.128906 C 297.421875 414.042969 297.984375 414.988281 298.503906 415.957031 C 299.023438 416.929688 299.492188 417.921875 299.914062 418.9375 C 300.335938 419.953125 300.707031 420.988281 301.023438 422.042969 C 301.34375 423.09375 301.609375 424.160156 301.824219 425.242188 C 302.039062 426.320312 302.203125 427.40625 302.308594 428.503906 C 302.417969 429.597656 302.472656 430.695312 302.472656 431.796875 Z M 302.472656 431.796875 " fill-opacity="1" fill-rule="nonzero"/><path fill="#212121" d="M 352.34375 324.757812 C 352.816406 327.695312 350.804688 330.449219 347.882812 330.925781 C 344.945312 331.386719 342.175781 329.386719 341.714844 326.449219 C 341.671875 326.140625 324.261719 218.039062 333.617188 212.851562 C 341.113281 208.679688 431.765625 268.496094 488.390625 305.871094 L 488.402344 305.886719 C 505.621094 317.230469 519.6875 326.519531 526.484375 330.855469 C 528.988281 332.449219 529.714844 335.78125 528.121094 338.285156 C 526.527344 340.789062 523.199219 341.527344 520.695312 339.933594 C 512.683594 334.816406 499.074219 325.835938 482.460938 314.867188 C 427.933594 278.859375 340.652344 221.257812 338.847656 222.265625 C 336.050781 223.816406 352.300781 324.476562 352.34375 324.757812 Z M 352.34375 324.757812 " fill-opacity="1" fill-rule="nonzero"/><path fill="#212121" d="M 362.871094 318.085938 C 362.734375 321.0625 360.214844 323.359375 357.238281 323.21875 C 354.273438 323.078125 351.980469 320.5625 352.117188 317.582031 L 355.488281 248.367188 C 355.628906 245.386719 358.160156 243.09375 361.125 243.234375 C 363.179688 243.332031 364.914062 244.574219 365.738281 246.308594 C 365.839844 246.507812 397.976562 314.460938 399.792969 317.203125 C 401.457031 319.679688 400.785156 323.035156 398.296875 324.6875 C 395.820312 326.351562 392.464844 325.679688 390.816406 323.191406 C 389.359375 321.023438 375.027344 290.988281 365.207031 270.34375 Z M 362.871094 318.085938 " fill-opacity="1" fill-rule="nonzero"/><path fill="#212121" d="M 409.457031 313.679688 C 409.332031 316.644531 406.828125 318.953125 403.851562 318.824219 C 400.886719 318.699219 398.578125 316.183594 398.703125 313.214844 L 401.738281 247.375 C 401.863281 244.394531 404.382812 242.085938 407.359375 242.226562 C 408.253906 242.253906 409.09375 242.519531 409.820312 242.9375 C 410.128906 243.105469 515.046875 303.800781 533.714844 310.027344 C 536.542969 310.964844 538.066406 314 537.144531 316.824219 C 536.207031 319.636719 533.15625 321.175781 530.347656 320.238281 C 513.746094 314.714844 436.800781 270.875 412.101562 256.691406 Z M 409.457031 313.679688 " fill-opacity="1" fill-rule="nonzero"/><path fill="#212121" d="M 246.488281 428.984375 C 249.4375 429.402344 251.496094 432.117188 251.089844 435.070312 C 250.683594 438.019531 247.957031 440.078125 245.019531 439.671875 C 244.769531 439.628906 157.402344 427.992188 97.152344 378.054688 C 94.859375 376.148438 94.539062 372.738281 96.425781 370.441406 C 98.328125 368.148438 101.742188 367.828125 104.035156 369.730469 C 161.917969 417.710938 246.25 428.957031 246.488281 428.984375 Z M 246.488281 428.984375 " fill-opacity="1" fill-rule="nonzero"/><path fill="#212121" d="M 251.285156 434.496094 C 253.984375 433.265625 257.171875 434.453125 258.417969 437.152344 C 259.648438 439.867188 258.460938 443.058594 255.761719 444.289062 C 255.648438 444.34375 218.785156 461.410156 191.933594 467.605469 C 189.023438 468.277344 186.140625 466.460938 185.472656 463.5625 C 184.8125 460.652344 186.617188 457.757812 189.527344 457.101562 C 215.328125 451.140625 251.171875 434.550781 251.285156 434.496094 Z M 251.285156 434.496094 " fill-opacity="1" fill-rule="nonzero"/><path fill="#212121" d="M 537.910156 330.308594 C 534.945312 330.210938 532.625 327.707031 532.722656 324.742188 C 532.835938 321.761719 535.324219 319.441406 538.289062 319.554688 C 538.863281 319.566406 733.773438 329.472656 792.136719 89.320312 C 792.835938 86.4375 795.742188 84.660156 798.636719 85.359375 C 801.519531 86.058594 803.308594 88.96875 802.609375 91.851562 C 742.136719 340.648438 538.5 330.339844 537.910156 330.308594 Z M 537.910156 330.308594 " fill-opacity="1" fill-rule="nonzero"/><path fill="#212121" d="M 292.261719 348.285156 C 294.277344 350.480469 294.136719 353.894531 291.941406 355.910156 C 289.757812 357.921875 286.347656 357.785156 284.332031 355.585938 L 230.417969 297.199219 L 204.796875 425.597656 C 204.378906 427.753906 202.714844 429.347656 200.699219 429.808594 L 15.160156 477.046875 C 12.277344 477.777344 9.339844 476.027344 8.601562 473.144531 C 7.871094 470.25 9.621094 467.3125 12.5 466.570312 L 194.867188 420.144531 L 221.886719 284.707031 C 222.113281 283.617188 222.671875 282.597656 223.539062 281.785156 C 225.734375 279.769531 229.148438 279.910156 231.160156 282.105469 Z M 292.261719 348.285156 " fill-opacity="1" fill-rule="nonzero"/><path fill="#212121" d="M 254.195312 444.792969 C 254.195312 444.792969 242.375 483.625 214.699219 501.191406 C 187.007812 518.746094 95.195312 562.308594 95.195312 562.308594 C 140.257812 551.886719 214.238281 508.789062 226.515625 503.207031 C 241.371094 496.464844 277.15625 444.121094 277.15625 444.121094 Z M 254.195312 444.792969 " fill-opacity="1" fill-rule="evenodd"/><path fill="#ed3237" d="M 664.589844 197.070312 L 193.960938 667.792969 L 157.417969 631.242188 L 628.046875 160.503906 Z M 664.589844 197.070312 " fill-opacity="1" fill-rule="nonzero"/><g fill="#ffffff" fill-opacity="1"><g transform="translate(279.127706, 572.036996)"><g><path d="M 5.4375 -54.71875 L 30.078125 -30.078125 L 24.078125 -24.078125 L 9.3125 -38.84375 L 18.5625 -18.5625 L 13.71875 -13.71875 L -6.640625 -22.984375 L 8.171875 -8.171875 L 2.171875 -2.171875 L -22.46875 -26.8125 L -15.375 -33.90625 L 8.59375 -23.75 L -1.625 -47.65625 Z M 5.4375 -54.71875 "/></g></g></g><g fill="#ffffff" fill-opacity="1"><g transform="translate(311.343233, 539.821469)"><g><path d="M -16.46875 -32.8125 L 8.171875 -8.171875 L 2.171875 -2.171875 L -22.46875 -26.8125 Z M -16.46875 -32.8125 "/></g></g></g><g fill="#ffffff" fill-opacity="1"><g transform="translate(321.695714, 529.468988)"><g><path d="M 24.203125 -24.203125 L 18.203125 -18.203125 L -7.015625 -23.359375 L 8.171875 -8.171875 L 2.171875 -2.171875 L -22.46875 -26.8125 L -16.46875 -32.8125 L 8.828125 -27.578125 L -6.4375 -42.84375 L -0.4375 -48.84375 Z M 24.203125 -24.203125 "/></g></g></g><g fill="#ffffff" fill-opacity="1"><g transform="translate(348.085772, 503.078931)"><g><path d="M 11.34375 -10.84375 C 9.539062 -9.039062 7.628906 -7.71875 5.609375 -6.875 C 3.597656 -6.039062 1.59375 -5.769531 -0.40625 -6.0625 C -2.40625 -6.351562 -4.238281 -7.28125 -5.90625 -8.84375 L 0.484375 -15.234375 C 1.492188 -14.410156 2.503906 -14.023438 3.515625 -14.078125 C 4.535156 -14.140625 5.484375 -14.609375 6.359375 -15.484375 C 7.234375 -16.359375 7.722656 -17.257812 7.828125 -18.1875 C 7.929688 -19.113281 7.625 -19.9375 6.90625 -20.65625 C 6.289062 -21.269531 5.582031 -21.570312 4.78125 -21.5625 C 3.976562 -21.550781 3.148438 -21.375 2.296875 -21.03125 C 1.441406 -20.6875 0.304688 -20.128906 -1.109375 -19.359375 C -3.203125 -18.265625 -4.992188 -17.457031 -6.484375 -16.9375 C -7.984375 -16.425781 -9.570312 -16.285156 -11.25 -16.515625 C -12.9375 -16.753906 -14.554688 -17.648438 -16.109375 -19.203125 C -18.398438 -21.492188 -19.363281 -24.117188 -19 -27.078125 C -18.632812 -30.035156 -17.117188 -32.847656 -14.453125 -35.515625 C -11.742188 -38.222656 -8.910156 -39.757812 -5.953125 -40.125 C -2.992188 -40.488281 -0.296875 -39.566406 2.140625 -37.359375 L -4.34375 -30.875 C -5.1875 -31.613281 -6.101562 -31.941406 -7.09375 -31.859375 C -8.09375 -31.785156 -9.015625 -31.328125 -9.859375 -30.484375 C -10.585938 -29.753906 -10.976562 -28.976562 -11.03125 -28.15625 C -11.082031 -27.332031 -10.75 -26.5625 -10.03125 -25.84375 C -9.226562 -25.039062 -8.234375 -24.789062 -7.046875 -25.09375 C -5.859375 -25.394531 -4.207031 -26.082031 -2.09375 -27.15625 C 0.03125 -28.21875 1.832031 -29 3.3125 -29.5 C 4.789062 -30 6.363281 -30.144531 8.03125 -29.9375 C 9.695312 -29.726562 11.265625 -28.890625 12.734375 -27.421875 C 14.148438 -26.003906 15.070312 -24.367188 15.5 -22.515625 C 15.925781 -20.660156 15.800781 -18.710938 15.125 -16.671875 C 14.445312 -14.628906 13.1875 -12.6875 11.34375 -10.84375 Z M 11.34375 -10.84375 "/></g></g></g><g fill="#ffffff" fill-opacity="1"><g transform="translate(369.668065, 481.496637)"><g><path d="M 13.15625 -21.875 L 3.953125 -12.671875 L 6.84375 -6.84375 L 0.5625 -0.5625 L -15.15625 -34.125 L -8.21875 -41.0625 L 25.328125 -25.328125 L 18.984375 -18.984375 Z M 6.984375 -24.953125 L -5.078125 -30.921875 L 0.921875 -18.890625 Z M 6.984375 -24.953125 "/></g></g></g><g fill="#ffffff" fill-opacity="1"><g transform="translate(395.531718, 455.632985)"><g/></g></g><g fill="#ffffff" fill-opacity="1"><g transform="translate(402.971464, 448.193238)"><g><path d="M 2.453125 -32.078125 L 7.4375 -27.09375 L -8 -11.65625 L -12.984375 -16.640625 Z M 2.453125 -32.078125 "/></g></g></g><g fill="#ffffff" fill-opacity="1"><g transform="translate(423.325506, 427.839196)"><g/></g></g><g fill="#ffffff" fill-opacity="1"><g transform="translate(430.765253, 420.399449)"><g><path d="M -13.234375 -36.046875 C -10.640625 -38.640625 -7.851562 -40.390625 -4.875 -41.296875 C -1.90625 -42.210938 1.035156 -42.269531 3.953125 -41.46875 C 6.878906 -40.675781 9.5625 -39.0625 12 -36.625 C 14.40625 -34.21875 16.015625 -31.546875 16.828125 -28.609375 C 17.640625 -25.671875 17.582031 -22.710938 16.65625 -19.734375 C 15.726562 -16.753906 13.976562 -13.976562 11.40625 -11.40625 L 2.171875 -2.171875 L -22.46875 -26.8125 Z M 5.828125 -16.203125 C 8.097656 -18.472656 9.238281 -20.859375 9.25 -23.359375 C 9.269531 -25.867188 8.148438 -28.253906 5.890625 -30.515625 C 3.617188 -32.785156 1.222656 -33.921875 -1.296875 -33.921875 C -3.828125 -33.929688 -6.226562 -32.800781 -8.5 -30.53125 L -11.34375 -27.6875 L 2.984375 -13.359375 Z M 5.828125 -16.203125 "/></g></g></g><g fill="#ffffff" fill-opacity="1"><g transform="translate(456.277992, 394.88671)"><g><path d="M 1.6875 -35.375 C 0.414062 -35.75 -0.847656 -35.738281 -2.109375 -35.34375 C -3.367188 -34.945312 -4.5625 -34.1875 -5.6875 -33.0625 C -7.632812 -31.113281 -8.550781 -28.914062 -8.4375 -26.46875 C -8.332031 -24.03125 -7.21875 -21.75 -5.09375 -19.625 C -2.820312 -17.351562 -0.4375 -16.191406 2.0625 -16.140625 C 4.570312 -16.097656 6.898438 -17.148438 9.046875 -19.296875 C 10.523438 -20.773438 11.394531 -22.394531 11.65625 -24.15625 C 11.925781 -25.925781 11.59375 -27.75 10.65625 -29.625 L 3.046875 -22.015625 L -1.375 -26.4375 L 11.671875 -39.484375 L 17.265625 -33.890625 C 18.316406 -31.941406 18.953125 -29.789062 19.171875 -27.4375 C 19.398438 -25.09375 19.085938 -22.703125 18.234375 -20.265625 C 17.390625 -17.835938 15.941406 -15.597656 13.890625 -13.546875 C 11.460938 -11.117188 8.765625 -9.484375 5.796875 -8.640625 C 2.828125 -7.796875 -0.132812 -7.785156 -3.09375 -8.609375 C -6.0625 -9.441406 -8.765625 -11.078125 -11.203125 -13.515625 C -13.628906 -15.941406 -15.257812 -18.640625 -16.09375 -21.609375 C -16.9375 -24.585938 -16.941406 -27.550781 -16.109375 -30.5 C -15.285156 -33.457031 -13.65625 -36.15625 -11.21875 -38.59375 C -8.269531 -41.539062 -5.070312 -43.3125 -1.625 -43.90625 C 1.820312 -44.5 5.132812 -43.863281 8.3125 -42 Z M 1.6875 -35.375 "/></g></g></g><g fill="#ffffff" fill-opacity="1"><g transform="translate(483.018983, 368.14572)"><g><path d="M -16.46875 -32.8125 L 8.171875 -8.171875 L 2.171875 -2.171875 L -22.46875 -26.8125 Z M -16.46875 -32.8125 "/></g></g></g><g fill="#ffffff" fill-opacity="1"><g transform="translate(493.371457, 357.793245)"><g><path d="M -11.65625 -28 L -6.671875 -23.015625 L 1.359375 -31.046875 L 6 -26.40625 L -2.03125 -18.375 L 3.359375 -12.984375 L 12.453125 -22.078125 L 17.265625 -17.265625 L 2.171875 -2.171875 L -22.46875 -26.8125 L -7.375 -41.90625 L -2.5625 -37.09375 Z M -11.65625 -28 "/></g></g></g><g fill="#ffffff" fill-opacity="1"><g transform="translate(512.356849, 338.807854)"><g><path d="M 11.34375 -10.84375 C 9.539062 -9.039062 7.628906 -7.71875 5.609375 -6.875 C 3.597656 -6.039062 1.59375 -5.769531 -0.40625 -6.0625 C -2.40625 -6.351562 -4.238281 -7.28125 -5.90625 -8.84375 L 0.484375 -15.234375 C 1.492188 -14.410156 2.503906 -14.023438 3.515625 -14.078125 C 4.535156 -14.140625 5.484375 -14.609375 6.359375 -15.484375 C 7.234375 -16.359375 7.722656 -17.257812 7.828125 -18.1875 C 7.929688 -19.113281 7.625 -19.9375 6.90625 -20.65625 C 6.289062 -21.269531 5.582031 -21.570312 4.78125 -21.5625 C 3.976562 -21.550781 3.148438 -21.375 2.296875 -21.03125 C 1.441406 -20.6875 0.304688 -20.128906 -1.109375 -19.359375 C -3.203125 -18.265625 -4.992188 -17.457031 -6.484375 -16.9375 C -7.984375 -16.425781 -9.570312 -16.285156 -11.25 -16.515625 C -12.9375 -16.753906 -14.554688 -17.648438 -16.109375 -19.203125 C -18.398438 -21.492188 -19.363281 -24.117188 -19 -27.078125 C -18.632812 -30.035156 -17.117188 -32.847656 -14.453125 -35.515625 C -11.742188 -38.222656 -8.910156 -39.757812 -5.953125 -40.125 C -2.992188 -40.488281 -0.296875 -39.566406 2.140625 -37.359375 L -4.34375 -30.875 C -5.1875 -31.613281 -6.101562 -31.941406 -7.09375 -31.859375 C -8.09375 -31.785156 -9.015625 -31.328125 -9.859375 -30.484375 C -10.585938 -29.753906 -10.976562 -28.976562 -11.03125 -28.15625 C -11.082031 -27.332031 -10.75 -26.5625 -10.03125 -25.84375 C -9.226562 -25.039062 -8.234375 -24.789062 -7.046875 -25.09375 C -5.859375 -25.394531 -4.207031 -26.082031 -2.09375 -27.15625 C 0.03125 -28.21875 1.832031 -29 3.3125 -29.5 C 4.789062 -30 6.363281 -30.144531 8.03125 -29.9375 C 9.695312 -29.726562 11.265625 -28.890625 12.734375 -27.421875 C 14.148438 -26.003906 15.070312 -24.367188 15.5 -22.515625 C 15.925781 -20.660156 15.800781 -18.710938 15.125 -16.671875 C 14.445312 -14.628906 13.1875 -12.6875 11.34375 -10.84375 Z M 11.34375 -10.84375 "/></g></g></g><g fill="#ffffff" fill-opacity="1"><g transform="translate(533.939142, 317.22556)"><g><path d="M 4.25 -37.65625 C 5.675781 -36.226562 6.648438 -34.59375 7.171875 -32.75 C 7.703125 -30.914062 7.648438 -28.957031 7.015625 -26.875 C 6.390625 -24.800781 5.070312 -22.757812 3.0625 -20.75 L -0.671875 -17.015625 L 8.171875 -8.171875 L 2.171875 -2.171875 L -22.46875 -26.8125 L -12.734375 -36.546875 C -10.773438 -38.503906 -8.773438 -39.820312 -6.734375 -40.5 C -4.691406 -41.175781 -2.734375 -41.253906 -0.859375 -40.734375 C 1.003906 -40.222656 2.707031 -39.195312 4.25 -37.65625 Z M -2.171875 -25.046875 C -1.023438 -26.191406 -0.4375 -27.3125 -0.40625 -28.40625 C -0.382812 -29.507812 -0.867188 -30.554688 -1.859375 -31.546875 C -2.835938 -32.523438 -3.875 -33 -4.96875 -32.96875 C -6.070312 -32.945312 -7.195312 -32.363281 -8.34375 -31.21875 L -11.609375 -27.953125 L -5.4375 -21.78125 Z M -2.171875 -25.046875 "/></g></g></g></svg>