<svg xmlns="http://www.w3.org/2000/svg" xmlns:xlink="http://www.w3.org/1999/xlink" width="1000" zoomAndPan="magnify" viewBox="0 0 750 149.999998" height="200" preserveAspectRatio="xMidYMid meet" version="1.0"><defs><g/><clipPath id="753854c31a"><path d="M 79 1.445312 L 101 1.445312 L 101 23 L 79 23 Z M 79 1.445312 " clip-rule="nonzero"/></clipPath><clipPath id="10e3029c41"><path d="M 10.253906 62 L 24 62 L 24 90 L 10.253906 90 Z M 10.253906 62 " clip-rule="nonzero"/></clipPath><clipPath id="33e9762ff4"><path d="M 156 62 L 170.003906 62 L 170.003906 90 L 156 90 Z M 156 62 " clip-rule="nonzero"/></clipPath><clipPath id="7031535e7d"><path d="M 576 26 L 664 26 L 664 113.875 L 576 113.875 Z M 576 26 " clip-rule="nonzero"/></clipPath><clipPath id="733b445307"><path d="M 627 23.875 L 661 23.875 L 661 59 L 627 59 Z M 627 23.875 " clip-rule="nonzero"/></clipPath><clipPath id="47fb791595"><path d="M 576 25 L 665 25 L 665 113.875 L 576 113.875 Z M 576 25 " clip-rule="nonzero"/></clipPath><clipPath id="59e460b49c"><path d="M 635 29 L 668.371094 29 L 668.371094 60 L 635 60 Z M 635 29 " clip-rule="nonzero"/></clipPath><clipPath id="939a6e3e4e"><path d="M 570.871094 53 L 606 53 L 606 78 L 570.871094 78 Z M 570.871094 53 " clip-rule="nonzero"/></clipPath></defs><path fill="#e6e7e8" d="M 66.882812 29.691406 L 113.195312 29.691406 C 125.925781 29.691406 137.496094 34.898438 145.882812 43.285156 C 154.265625 51.671875 159.472656 63.246094 159.472656 75.980469 C 159.472656 88.714844 154.265625 100.292969 145.882812 108.675781 C 137.496094 117.066406 125.925781 122.269531 113.195312 122.269531 L 108.140625 122.269531 L 82.445312 146.222656 C 80.121094 148.378906 76.488281 148.246094 74.328125 145.929688 C 73.296875 144.820312 72.789062 143.414062 72.789062 142.011719 L 72.777344 142.011719 L 72.777344 122.269531 L 66.882812 122.269531 C 54.152344 122.269531 42.582031 117.066406 34.195312 108.675781 C 25.808594 100.292969 20.605469 88.714844 20.605469 75.980469 C 20.605469 63.246094 25.808594 51.671875 34.195312 43.285156 C 42.582031 34.898438 54.152344 29.691406 66.882812 29.691406 Z M 113.195312 41.207031 L 66.882812 41.207031 C 57.328125 41.207031 48.636719 45.121094 42.332031 51.425781 C 36.027344 57.730469 32.113281 66.425781 32.113281 75.980469 C 32.113281 85.539062 36.027344 94.230469 42.332031 100.535156 C 48.636719 106.839844 57.328125 110.757812 66.882812 110.757812 L 78.53125 110.757812 C 81.710938 110.757812 84.289062 113.335938 84.289062 116.515625 L 84.289062 128.796875 L 101.695312 112.566406 C 102.75 111.453125 104.238281 110.757812 105.890625 110.757812 L 113.195312 110.757812 C 122.746094 110.757812 131.441406 106.839844 137.746094 100.535156 C 144.046875 94.230469 147.960938 85.539062 147.960938 75.980469 C 147.960938 66.425781 144.046875 57.730469 137.746094 51.425781 C 131.441406 45.121094 122.746094 41.207031 113.195312 41.207031 Z M 113.195312 41.207031 " fill-opacity="1" fill-rule="nonzero"/><path fill="#e6e7e8" d="M 86.125 12.289062 L 93.953125 12.289062 L 93.953125 36.039062 L 86.125 36.039062 Z M 86.125 12.289062 " fill-opacity="1" fill-rule="evenodd"/><g clip-path="url(#753854c31a)"><path fill="#e6e7e8" d="M 90.039062 1.492188 C 95.699219 1.492188 100.292969 6.085938 100.292969 11.75 C 100.292969 17.414062 95.699219 22.007812 90.039062 22.007812 C 84.378906 22.007812 79.785156 17.414062 79.785156 11.75 C 79.785156 6.085938 84.378906 1.492188 90.039062 1.492188 Z M 90.039062 1.492188 " fill-opacity="1" fill-rule="evenodd"/></g><g clip-path="url(#10e3029c41)"><path fill="#e6e7e8" d="M 23.9375 89.667969 C 16.378906 89.667969 10.253906 83.539062 10.253906 75.980469 C 10.253906 68.425781 16.378906 62.296875 23.9375 62.296875 Z M 23.9375 89.667969 " fill-opacity="1" fill-rule="evenodd"/></g><g clip-path="url(#33e9762ff4)"><path fill="#e6e7e8" d="M 156.332031 89.667969 C 163.886719 89.667969 170.007812 83.539062 170.007812 75.980469 C 170.007812 68.425781 163.886719 62.296875 156.332031 62.296875 Z M 156.332031 89.667969 " fill-opacity="1" fill-rule="evenodd"/></g><path fill="#e6e7e8" d="M 71.289062 59.601562 C 74.636719 59.601562 77.375 62.339844 77.375 65.6875 L 77.375 84.109375 C 77.375 87.453125 74.636719 90.1875 71.289062 90.1875 C 67.945312 90.1875 65.207031 87.453125 65.207031 84.109375 L 65.207031 65.6875 C 65.207031 62.339844 67.945312 59.601562 71.289062 59.601562 Z M 71.289062 59.601562 " fill-opacity="1" fill-rule="evenodd"/><path fill="#e6e7e8" d="M 108.785156 59.601562 L 108.789062 59.601562 C 112.132812 59.601562 114.871094 62.339844 114.871094 65.6875 L 114.871094 84.109375 C 114.871094 87.453125 112.132812 90.1875 108.789062 90.1875 L 108.785156 90.1875 C 105.4375 90.1875 102.703125 87.453125 102.703125 84.109375 L 102.703125 65.6875 C 102.703125 62.339844 105.4375 59.601562 108.785156 59.601562 Z M 108.785156 59.601562 " fill-opacity="1" fill-rule="evenodd"/><g fill="#e6e7e8" fill-opacity="1"><g transform="translate(208.255921, 109.329956)"><g><path d="M 5.953125 -81.875 L 29.671875 -81.875 C 41.046875 -81.875 50.769531 -77.984375 58.84375 -70.203125 C 66.914062 -62.429688 70.953125 -52.691406 70.953125 -40.984375 C 70.953125 -29.203125 66.929688 -19.425781 58.890625 -11.65625 C 50.859375 -3.882812 41.117188 0 29.671875 0 L 5.953125 0 Z M 24.609375 -16.671875 L 27.484375 -16.671875 C 34.296875 -16.671875 39.867188 -18.96875 44.203125 -23.5625 C 48.535156 -28.164062 50.738281 -33.941406 50.8125 -40.890625 C 50.8125 -47.828125 48.644531 -53.613281 44.3125 -58.25 C 39.976562 -62.882812 34.367188 -65.203125 27.484375 -65.203125 L 24.609375 -65.203125 Z M 24.609375 -16.671875 "/></g></g></g><g fill="#e6e7e8" fill-opacity="1"><g transform="translate(281.48011, 109.329956)"><g><path d="M 52.796875 -81.875 L 52.796875 -65.5 L 24.609375 -65.5 L 24.609375 -49.21875 L 51.609375 -49.21875 L 51.609375 -32.84375 L 24.609375 -32.84375 L 24.609375 -16.375 L 52.796875 -16.375 L 52.796875 0 L 5.953125 0 L 5.953125 -81.875 Z M 52.796875 -81.875 "/></g></g></g><g fill="#e6e7e8" fill-opacity="1"><g transform="translate(339.027587, 109.329956)"><g><path d="M 24.609375 -50.8125 L 24.609375 0 L 5.953125 0 L 5.953125 -81.875 L 24.609375 -81.875 L 57.15625 -31.0625 L 57.359375 -31.0625 L 57.359375 -81.875 L 76.015625 -81.875 L 76.015625 0 L 57.359375 0 L 24.8125 -50.8125 Z M 24.609375 -50.8125 "/></g></g></g><g fill="#e6e7e8" fill-opacity="1"><g transform="translate(420.983119, 109.329956)"><g><path d="M 31.5625 0 L -2.78125 -81.875 L 18.265625 -81.875 L 38.90625 -28.078125 L 59.546875 -81.875 L 80.578125 -81.875 L 46.25 0 Z M 31.5625 0 "/></g></g></g><g fill="#e6e7e8" fill-opacity="1"><g transform="translate(498.771422, 109.329956)"><g><path d="M 5.953125 -81.875 L 31.359375 -81.875 C 39.035156 -81.875 45.15625 -80.234375 49.71875 -76.953125 C 54.28125 -73.679688 56.5625 -68.375 56.5625 -61.03125 C 56.5625 -52.820312 53.15625 -46.96875 46.34375 -43.46875 C 57.988281 -41.414062 63.8125 -34.535156 63.8125 -22.828125 C 63.8125 -15.941406 61.425781 -10.414062 56.65625 -6.25 C 51.894531 -2.082031 45.347656 0 37.015625 0 L 5.953125 0 Z M 24.609375 -49.8125 L 26.09375 -49.8125 C 30.257812 -49.8125 33.367188 -50.539062 35.421875 -52 C 37.472656 -53.457031 38.5 -55.835938 38.5 -59.140625 C 38.5 -64.703125 34.363281 -67.484375 26.09375 -67.484375 L 24.609375 -67.484375 Z M 24.609375 -14.390625 L 30.46875 -14.390625 C 39.59375 -14.390625 44.15625 -17.429688 44.15625 -23.515625 C 44.15625 -27.148438 43.015625 -29.757812 40.734375 -31.34375 C 38.453125 -32.9375 35.03125 -33.734375 30.46875 -33.734375 L 24.609375 -33.734375 Z M 24.609375 -14.390625 "/></g></g></g><g fill="#e6e7e8" fill-opacity="1"><g transform="translate(564.873815, 109.329956)"><g/></g></g><g fill="#e6e7e8" fill-opacity="1"><g transform="translate(591.960822, 109.329956)"><g/></g></g><g fill="#e6e7e8" fill-opacity="1"><g transform="translate(619.047829, 109.329956)"><g/></g></g><g fill="#e6e7e8" fill-opacity="1"><g transform="translate(646.134835, 109.329956)"><g/></g></g><g fill="#e6e7e8" fill-opacity="1"><g transform="translate(673.238858, 109.329956)"><g><path d="M 8.9375 -50.90625 L 8.9375 -69.859375 L 26.5 -69.859375 L 26.5 -50.90625 L 37.21875 -50.90625 L 37.21875 -37.515625 L 26.5 -37.515625 L 26.5 -21.328125 C 26.5 -16.640625 27.820312 -14.296875 30.46875 -14.296875 C 31.125 -14.296875 31.816406 -14.425781 32.546875 -14.6875 C 33.273438 -14.945312 33.835938 -15.210938 34.234375 -15.484375 L 34.828125 -15.875 L 39.203125 -1.6875 C 35.429688 0.425781 31.128906 1.484375 26.296875 1.484375 C 22.984375 1.484375 20.132812 0.90625 17.75 -0.25 C 15.375 -1.40625 13.570312 -2.957031 12.34375 -4.90625 C 11.125 -6.863281 10.25 -8.914062 9.71875 -11.0625 C 9.195312 -13.21875 8.9375 -15.519531 8.9375 -17.96875 L 8.9375 -37.515625 L 1.59375 -37.515625 L 1.59375 -50.90625 Z M 8.9375 -50.90625 "/></g></g></g><g clip-path="url(#7031535e7d)"><path fill="#fefefe" d="M 663.359375 70.207031 C 663.359375 71.625 663.289062 73.039062 663.148438 74.449219 C 663.011719 75.859375 662.804688 77.261719 662.527344 78.652344 C 662.25 80.042969 661.90625 81.414062 661.496094 82.769531 C 661.085938 84.128906 660.609375 85.460938 660.066406 86.769531 C 659.523438 88.078125 658.917969 89.359375 658.25 90.609375 C 657.582031 91.859375 656.855469 93.074219 656.070312 94.253906 C 655.28125 95.429688 654.4375 96.566406 653.539062 97.664062 C 652.640625 98.757812 651.691406 99.808594 650.691406 100.808594 C 649.6875 101.8125 648.640625 102.761719 647.542969 103.664062 C 646.449219 104.5625 645.3125 105.40625 644.136719 106.191406 C 642.957031 106.980469 641.742188 107.707031 640.496094 108.375 C 639.246094 109.042969 637.964844 109.648438 636.65625 110.191406 C 635.347656 110.734375 634.015625 111.210938 632.660156 111.621094 C 631.304688 112.035156 629.933594 112.378906 628.542969 112.65625 C 627.15625 112.929688 625.753906 113.140625 624.34375 113.277344 C 622.9375 113.417969 621.523438 113.488281 620.105469 113.488281 C 618.691406 113.488281 617.277344 113.417969 615.867188 113.277344 C 614.457031 113.140625 613.058594 112.929688 611.667969 112.65625 C 610.277344 112.378906 608.90625 112.035156 607.550781 111.621094 C 606.195312 111.210938 604.863281 110.734375 603.554688 110.191406 C 602.246094 109.648438 600.964844 109.042969 599.71875 108.375 C 598.46875 107.707031 597.253906 106.980469 596.078125 106.191406 C 594.898438 105.40625 593.761719 104.5625 592.667969 103.664062 C 591.574219 102.761719 590.523438 101.8125 589.523438 100.808594 C 588.519531 99.808594 587.570312 98.757812 586.671875 97.664062 C 585.773438 96.566406 584.929688 95.429688 584.144531 94.253906 C 583.355469 93.074219 582.628906 91.859375 581.960938 90.609375 C 581.292969 89.359375 580.6875 88.078125 580.148438 86.769531 C 579.605469 85.460938 579.128906 84.128906 578.71875 82.769531 C 578.304688 81.414062 577.960938 80.042969 577.683594 78.652344 C 577.410156 77.261719 577.203125 75.859375 577.0625 74.449219 C 576.925781 73.039062 576.855469 71.625 576.855469 70.207031 C 576.855469 68.789062 576.925781 67.375 577.0625 65.964844 C 577.203125 64.554688 577.410156 63.15625 577.683594 61.765625 C 577.960938 60.375 578.304688 59 578.71875 57.644531 C 579.128906 56.289062 579.605469 54.957031 580.148438 53.644531 C 580.6875 52.335938 581.292969 51.058594 581.960938 49.804688 C 582.628906 48.554688 583.355469 47.34375 584.144531 46.164062 C 584.929688 44.984375 585.773438 43.847656 586.671875 42.753906 C 587.570312 41.65625 588.519531 40.609375 589.523438 39.605469 C 590.523438 38.601562 591.574219 37.652344 592.667969 36.753906 C 593.761719 35.855469 594.898438 35.011719 596.078125 34.222656 C 597.253906 33.4375 598.46875 32.707031 599.71875 32.039062 C 600.964844 31.371094 602.246094 30.765625 603.554688 30.222656 C 604.863281 29.679688 606.195312 29.203125 607.550781 28.792969 C 608.90625 28.382812 610.277344 28.039062 611.667969 27.761719 C 613.058594 27.484375 614.457031 27.277344 615.867188 27.136719 C 617.277344 27 618.691406 26.929688 620.105469 26.929688 C 621.523438 26.929688 622.9375 27 624.34375 27.136719 C 625.753906 27.277344 627.15625 27.484375 628.542969 27.761719 C 629.933594 28.039062 631.304688 28.382812 632.660156 28.792969 C 634.015625 29.203125 635.347656 29.679688 636.65625 30.222656 C 637.964844 30.765625 639.246094 31.371094 640.496094 32.039062 C 641.742188 32.707031 642.957031 33.4375 644.136719 34.222656 C 645.3125 35.011719 646.449219 35.855469 647.542969 36.753906 C 648.640625 37.652344 649.6875 38.601562 650.691406 39.605469 C 651.691406 40.609375 652.640625 41.65625 653.539062 42.753906 C 654.4375 43.847656 655.28125 44.984375 656.070312 46.164062 C 656.855469 47.34375 657.582031 48.554688 658.25 49.804688 C 658.917969 51.058594 659.523438 52.335938 660.066406 53.644531 C 660.609375 54.957031 661.085938 56.289062 661.496094 57.644531 C 661.90625 59 662.25 60.375 662.527344 61.765625 C 662.804688 63.15625 663.011719 64.554688 663.148438 65.964844 C 663.289062 67.375 663.359375 68.789062 663.359375 70.207031 Z M 663.359375 70.207031 " fill-opacity="1" fill-rule="nonzero"/></g><g clip-path="url(#733b445307)"><path fill="#212121" d="M 659.066406 24.382812 C 659.195312 24.042969 659.578125 23.871094 659.917969 24.003906 C 660.257812 24.136719 660.425781 24.519531 660.296875 24.859375 C 660.269531 24.929688 651.011719 49.292969 628.414062 58.757812 C 628.078125 58.894531 627.691406 58.734375 627.550781 58.398438 C 627.410156 58.0625 627.570312 57.675781 627.90625 57.535156 C 649.980469 48.289062 659.039062 24.449219 659.066406 24.382812 Z M 659.066406 24.382812 " fill-opacity="1" fill-rule="nonzero"/></g><g clip-path="url(#47fb791595)"><path fill="#ed3237" d="M 620.28125 25.941406 C 632.417969 25.941406 643.402344 30.863281 651.351562 38.820312 C 659.304688 46.777344 664.222656 57.769531 664.222656 69.910156 C 664.222656 82.050781 659.304688 93.042969 651.351562 101 C 643.402344 108.957031 632.417969 113.878906 620.28125 113.878906 C 608.148438 113.878906 597.164062 108.957031 589.210938 101 C 581.257812 93.042969 576.339844 82.050781 576.339844 69.910156 C 576.339844 57.769531 581.257812 46.777344 589.210938 38.820312 C 597.164062 30.863281 608.148438 25.941406 620.28125 25.941406 Z M 646.875 43.300781 C 640.070312 36.488281 630.667969 32.277344 620.28125 32.277344 C 609.898438 32.277344 600.496094 36.488281 593.6875 43.300781 C 586.882812 50.109375 582.671875 59.515625 582.671875 69.910156 C 582.671875 80.300781 586.882812 89.710938 593.6875 96.519531 C 600.496094 103.328125 609.898438 107.539062 620.28125 107.539062 C 630.667969 107.539062 640.070312 103.328125 646.875 96.519531 C 653.679688 89.710938 657.890625 80.300781 657.890625 69.910156 C 657.890625 59.515625 653.679688 50.109375 646.875 43.300781 Z M 646.875 43.300781 " fill-opacity="1" fill-rule="nonzero"/></g><path fill="#212121" d="M 645.226562 56.820312 L 613.871094 56.820312 C 613.871094 56.820312 609.984375 55.785156 607.210938 56.945312 C 604.441406 58.105469 600.964844 61.167969 603.117188 67.625 C 605.269531 74.078125 606.964844 69.445312 608.246094 67.871094 C 609.527344 66.296875 611.804688 71.679688 612.878906 72.34375 C 613.953125 73.003906 615.234375 74.988281 621.027344 66.960938 L 622.433594 65.636719 C 622.433594 65.636719 638.027344 67.664062 649.195312 60.050781 C 640.179688 59.46875 638.691406 59.304688 638.691406 59.304688 C 638.691406 59.304688 641.832031 58.808594 645.226562 56.820312 Z M 618.214844 65.347656 L 615.566406 65.179688 L 617.097656 68.492188 C 617.097656 68.492188 618.917969 65.492188 618.214844 65.347656 Z M 618.214844 65.347656 " fill-opacity="1" fill-rule="evenodd"/><path fill="#212121" d="M 626.800781 63.816406 C 626.820312 63.453125 627.132812 63.175781 627.5 63.195312 C 627.863281 63.21875 628.140625 63.53125 628.117188 63.894531 L 627.433594 74.894531 L 649.015625 95.914062 C 649.277344 96.167969 649.28125 96.585938 649.027344 96.847656 C 648.773438 97.109375 648.355469 97.117188 648.09375 96.863281 L 626.308594 75.640625 C 626.167969 75.511719 626.085938 75.324219 626.097656 75.117188 Z M 626.800781 63.816406 " fill-opacity="1" fill-rule="nonzero"/><path fill="#212121" d="M 619.847656 65.082031 C 619.675781 64.761719 619.792969 64.359375 620.109375 64.1875 C 620.433594 64.011719 620.832031 64.132812 621.003906 64.453125 L 624.144531 70.164062 L 650.53125 85.054688 C 650.847656 85.230469 650.960938 85.632812 650.78125 85.949219 C 650.605469 86.265625 650.203125 86.378906 649.886719 86.199219 L 623.375 71.242188 C 623.253906 71.183594 623.144531 71.089844 623.074219 70.960938 C 623.066406 70.945312 620.175781 65.6875 619.847656 65.082031 Z M 619.847656 65.082031 " fill-opacity="1" fill-rule="nonzero"/><path fill="#212121" d="M 606.910156 66.300781 C 606.863281 65.9375 607.117188 65.609375 607.476562 65.5625 C 607.839844 65.511719 608.167969 65.769531 608.21875 66.128906 L 610.863281 86.164062 C 610.875 86.234375 610.871094 86.304688 610.859375 86.375 C 610.753906 87.046875 608.414062 102.054688 603.304688 109.308594 C 603.09375 109.609375 602.683594 109.679688 602.382812 109.46875 C 602.085938 109.261719 602.015625 108.847656 602.226562 108.546875 C 607.039062 101.707031 609.34375 87.527344 609.542969 86.242188 Z M 606.910156 66.300781 " fill-opacity="1" fill-rule="nonzero"/><path fill="#212121" d="M 606.984375 72.070312 C 606.984375 72.34375 606.957031 72.609375 606.90625 72.875 C 606.851562 73.140625 606.773438 73.398438 606.671875 73.648438 C 606.566406 73.898438 606.441406 74.136719 606.289062 74.359375 C 606.140625 74.585938 605.96875 74.792969 605.777344 74.984375 C 605.585938 75.175781 605.378906 75.347656 605.15625 75.496094 C 604.929688 75.644531 604.691406 75.773438 604.441406 75.875 C 604.191406 75.980469 603.9375 76.058594 603.671875 76.109375 C 603.40625 76.164062 603.136719 76.191406 602.867188 76.191406 C 602.597656 76.191406 602.328125 76.164062 602.066406 76.109375 C 601.800781 76.058594 601.542969 75.980469 601.292969 75.875 C 601.042969 75.773438 600.804688 75.644531 600.582031 75.496094 C 600.355469 75.347656 600.148438 75.175781 599.957031 74.984375 C 599.765625 74.792969 599.59375 74.585938 599.445312 74.359375 C 599.296875 74.136719 599.167969 73.898438 599.066406 73.648438 C 598.960938 73.398438 598.882812 73.140625 598.832031 72.875 C 598.777344 72.609375 598.75 72.34375 598.75 72.070312 C 598.75 71.800781 598.777344 71.535156 598.832031 71.269531 C 598.882812 71.003906 598.960938 70.746094 599.066406 70.496094 C 599.167969 70.246094 599.296875 70.007812 599.445312 69.785156 C 599.59375 69.558594 599.765625 69.351562 599.957031 69.160156 C 600.148438 68.96875 600.355469 68.796875 600.582031 68.648438 C 600.804688 68.496094 601.042969 68.371094 601.292969 68.265625 C 601.542969 68.164062 601.800781 68.085938 602.066406 68.03125 C 602.328125 67.980469 602.597656 67.953125 602.867188 67.953125 C 603.136719 67.953125 603.40625 67.980469 603.671875 68.03125 C 603.9375 68.085938 604.191406 68.164062 604.441406 68.265625 C 604.691406 68.371094 604.929688 68.496094 605.15625 68.648438 C 605.378906 68.796875 605.585938 68.96875 605.777344 69.160156 C 605.96875 69.351562 606.140625 69.558594 606.289062 69.785156 C 606.441406 70.007812 606.566406 70.246094 606.671875 70.496094 C 606.773438 70.746094 606.851562 71.003906 606.90625 71.269531 C 606.957031 71.535156 606.984375 71.800781 606.984375 72.070312 Z M 606.984375 72.070312 " fill-opacity="1" fill-rule="nonzero"/><path fill="#212121" d="M 613.09375 58.953125 C 613.152344 59.3125 612.90625 59.648438 612.546875 59.707031 C 612.1875 59.765625 611.847656 59.519531 611.792969 59.160156 C 611.785156 59.121094 609.652344 45.871094 610.800781 45.234375 C 611.71875 44.722656 622.824219 52.054688 629.761719 56.636719 L 629.765625 56.636719 C 631.875 58.027344 633.597656 59.167969 634.429688 59.699219 C 634.738281 59.894531 634.828125 60.300781 634.632812 60.609375 C 634.4375 60.917969 634.027344 61.007812 633.722656 60.8125 C 632.738281 60.183594 631.074219 59.082031 629.035156 57.738281 C 622.355469 53.324219 611.660156 46.265625 611.441406 46.386719 C 611.097656 46.578125 613.089844 58.917969 613.09375 58.953125 Z M 613.09375 58.953125 " fill-opacity="1" fill-rule="nonzero"/><path fill="#212121" d="M 614.382812 58.132812 C 614.367188 58.5 614.058594 58.78125 613.695312 58.761719 C 613.332031 58.746094 613.050781 58.4375 613.066406 58.070312 L 613.480469 49.589844 C 613.496094 49.222656 613.808594 48.941406 614.171875 48.957031 C 614.421875 48.972656 614.632812 49.125 614.734375 49.335938 C 614.746094 49.359375 618.6875 57.691406 618.910156 58.027344 C 619.113281 58.328125 619.03125 58.742188 618.726562 58.941406 C 618.421875 59.148438 618.011719 59.066406 617.808594 58.757812 C 617.628906 58.492188 615.875 54.8125 614.671875 52.28125 Z M 614.382812 58.132812 " fill-opacity="1" fill-rule="nonzero"/><path fill="#212121" d="M 620.09375 57.59375 C 620.078125 57.957031 619.769531 58.238281 619.40625 58.222656 C 619.042969 58.210938 618.757812 57.902344 618.773438 57.535156 L 619.148438 49.464844 C 619.160156 49.101562 619.46875 48.816406 619.835938 48.835938 C 619.945312 48.839844 620.046875 48.871094 620.136719 48.921875 C 620.175781 48.945312 633.03125 56.382812 635.316406 57.144531 C 635.664062 57.261719 635.851562 57.632812 635.738281 57.980469 C 635.621094 58.324219 635.25 58.511719 634.902344 58.398438 C 632.871094 57.71875 623.441406 52.347656 620.417969 50.609375 Z M 620.09375 57.59375 " fill-opacity="1" fill-rule="nonzero"/><path fill="#212121" d="M 600.125 71.726562 C 600.484375 71.777344 600.738281 72.109375 600.6875 72.472656 C 600.636719 72.835938 600.304688 73.085938 599.945312 73.035156 C 599.914062 73.03125 589.210938 71.605469 581.828125 65.484375 C 581.546875 65.25 581.507812 64.832031 581.738281 64.550781 C 581.972656 64.269531 582.390625 64.230469 582.671875 64.464844 C 589.761719 70.34375 600.09375 71.722656 600.125 71.726562 Z M 600.125 71.726562 " fill-opacity="1" fill-rule="nonzero"/><path fill="#212121" d="M 600.710938 72.402344 C 601.042969 72.25 601.433594 72.398438 601.585938 72.726562 C 601.738281 73.0625 601.589844 73.453125 601.261719 73.601562 C 601.246094 73.609375 596.730469 75.703125 593.441406 76.460938 C 593.082031 76.542969 592.730469 76.320312 592.648438 75.964844 C 592.566406 75.609375 592.789062 75.253906 593.144531 75.171875 C 596.304688 74.441406 600.699219 72.410156 600.710938 72.402344 Z M 600.710938 72.402344 " fill-opacity="1" fill-rule="nonzero"/><g clip-path="url(#59e460b49c)"><path fill="#212121" d="M 635.832031 59.632812 C 635.46875 59.621094 635.183594 59.3125 635.195312 58.949219 C 635.210938 58.585938 635.515625 58.300781 635.878906 58.3125 C 635.949219 58.316406 659.828125 59.53125 666.980469 30.09375 C 667.066406 29.738281 667.421875 29.523438 667.777344 29.609375 C 668.128906 29.695312 668.347656 30.050781 668.261719 30.402344 C 660.855469 60.898438 635.902344 59.636719 635.832031 59.632812 Z M 635.832031 59.632812 " fill-opacity="1" fill-rule="nonzero"/></g><g clip-path="url(#939a6e3e4e)"><path fill="#212121" d="M 605.734375 61.835938 C 605.980469 62.105469 605.960938 62.523438 605.695312 62.769531 C 605.425781 63.015625 605.007812 63 604.761719 62.730469 L 598.15625 55.574219 L 595.015625 71.3125 C 594.964844 71.578125 594.761719 71.773438 594.515625 71.828125 L 571.78125 77.617188 C 571.425781 77.707031 571.066406 77.492188 570.976562 77.140625 C 570.886719 76.785156 571.101562 76.425781 571.453125 76.335938 L 593.800781 70.644531 L 597.109375 54.042969 C 597.136719 53.910156 597.207031 53.785156 597.3125 53.683594 C 597.582031 53.4375 598 53.453125 598.246094 53.722656 Z M 605.734375 61.835938 " fill-opacity="1" fill-rule="nonzero"/></g><path fill="#212121" d="M 601.070312 73.664062 C 601.070312 73.664062 599.621094 78.425781 596.230469 80.578125 C 592.835938 82.730469 581.585938 88.070312 581.585938 88.070312 C 587.109375 86.792969 596.171875 81.507812 597.675781 80.824219 C 599.496094 80 603.882812 73.582031 603.882812 73.582031 Z M 601.070312 73.664062 " fill-opacity="1" fill-rule="evenodd"/><path fill="#ed3237" d="M 651.351562 43.300781 L 593.6875 101 L 589.210938 96.519531 L 646.875 38.820312 Z M 651.351562 43.300781 " fill-opacity="1" fill-rule="nonzero"/></svg>