<svg xmlns="http://www.w3.org/2000/svg" xmlns:xlink="http://www.w3.org/1999/xlink" width="1000" zoomAndPan="magnify" viewBox="0 0 750 149.999998" height="200" preserveAspectRatio="xMidYMid meet" version="1.0"><defs><g/><clipPath id="42bd62f002"><path d="M 79 1.445312 L 101 1.445312 L 101 23 L 79 23 Z M 79 1.445312 " clip-rule="nonzero"/></clipPath><clipPath id="dd5d4ba10d"><path d="M 10.253906 62 L 24 62 L 24 90 L 10.253906 90 Z M 10.253906 62 " clip-rule="nonzero"/></clipPath><clipPath id="98677043f4"><path d="M 156 62 L 170.003906 62 L 170.003906 90 L 156 90 Z M 156 62 " clip-rule="nonzero"/></clipPath><clipPath id="53ae31c2e7"><path d="M 617 23.875 L 653 23.875 L 653 61 L 617 61 Z M 617 23.875 " clip-rule="nonzero"/></clipPath><clipPath id="b9c1a5a72f"><path d="M 564 26 L 657 26 L 657 118.375 L 564 118.375 Z M 564 26 " clip-rule="nonzero"/></clipPath><clipPath id="af8a57fc92"><path d="M 625 29 L 660.488281 29 L 660.488281 62 L 625 62 Z M 625 29 " clip-rule="nonzero"/></clipPath><clipPath id="3365f3aabc"><path d="M 558.488281 54 L 596 54 L 596 81 L 558.488281 81 Z M 558.488281 54 " clip-rule="nonzero"/></clipPath></defs><path fill="#e6e7e8" d="M 66.882812 29.691406 L 113.195312 29.691406 C 125.925781 29.691406 137.496094 34.898438 145.882812 43.285156 C 154.265625 51.671875 159.472656 63.246094 159.472656 75.980469 C 159.472656 88.714844 154.265625 100.292969 145.882812 108.675781 C 137.496094 117.066406 125.925781 122.269531 113.195312 122.269531 L 108.140625 122.269531 L 82.445312 146.222656 C 80.121094 148.378906 76.488281 148.246094 74.328125 145.929688 C 73.296875 144.820312 72.789062 143.414062 72.789062 142.011719 L 72.777344 142.011719 L 72.777344 122.269531 L 66.882812 122.269531 C 54.152344 122.269531 42.582031 117.066406 34.195312 108.675781 C 25.808594 100.292969 20.605469 88.714844 20.605469 75.980469 C 20.605469 63.246094 25.808594 51.671875 34.195312 43.285156 C 42.582031 34.898438 54.152344 29.691406 66.882812 29.691406 Z M 113.195312 41.207031 L 66.882812 41.207031 C 57.328125 41.207031 48.636719 45.121094 42.332031 51.425781 C 36.027344 57.730469 32.113281 66.425781 32.113281 75.980469 C 32.113281 85.539062 36.027344 94.230469 42.332031 100.535156 C 48.636719 106.839844 57.328125 110.757812 66.882812 110.757812 L 78.53125 110.757812 C 81.710938 110.757812 84.289062 113.335938 84.289062 116.515625 L 84.289062 128.796875 L 101.695312 112.566406 C 102.75 111.453125 104.238281 110.757812 105.890625 110.757812 L 113.195312 110.757812 C 122.746094 110.757812 131.441406 106.839844 137.746094 100.535156 C 144.046875 94.230469 147.960938 85.539062 147.960938 75.980469 C 147.960938 66.425781 144.046875 57.730469 137.746094 51.425781 C 131.441406 45.121094 122.746094 41.207031 113.195312 41.207031 Z M 113.195312 41.207031 " fill-opacity="1" fill-rule="nonzero"/><path fill="#e6e7e8" d="M 86.125 12.289062 L 93.953125 12.289062 L 93.953125 36.039062 L 86.125 36.039062 Z M 86.125 12.289062 " fill-opacity="1" fill-rule="evenodd"/><g clip-path="url(#42bd62f002)"><path fill="#e6e7e8" d="M 90.039062 1.492188 C 95.699219 1.492188 100.292969 6.085938 100.292969 11.75 C 100.292969 17.414062 95.699219 22.007812 90.039062 22.007812 C 84.378906 22.007812 79.785156 17.414062 79.785156 11.75 C 79.785156 6.085938 84.378906 1.492188 90.039062 1.492188 Z M 90.039062 1.492188 " fill-opacity="1" fill-rule="evenodd"/></g><g clip-path="url(#dd5d4ba10d)"><path fill="#e6e7e8" d="M 23.9375 89.667969 C 16.378906 89.667969 10.253906 83.539062 10.253906 75.980469 C 10.253906 68.425781 16.378906 62.296875 23.9375 62.296875 Z M 23.9375 89.667969 " fill-opacity="1" fill-rule="evenodd"/></g><g clip-path="url(#98677043f4)"><path fill="#e6e7e8" d="M 156.332031 89.667969 C 163.886719 89.667969 170.007812 83.539062 170.007812 75.980469 C 170.007812 68.425781 163.886719 62.296875 156.332031 62.296875 Z M 156.332031 89.667969 " fill-opacity="1" fill-rule="evenodd"/></g><path fill="#e6e7e8" d="M 71.289062 59.601562 C 74.636719 59.601562 77.375 62.339844 77.375 65.6875 L 77.375 84.109375 C 77.375 87.453125 74.636719 90.1875 71.289062 90.1875 C 67.945312 90.1875 65.207031 87.453125 65.207031 84.109375 L 65.207031 65.6875 C 65.207031 62.339844 67.945312 59.601562 71.289062 59.601562 Z M 71.289062 59.601562 " fill-opacity="1" fill-rule="evenodd"/><path fill="#e6e7e8" d="M 108.785156 59.601562 L 108.789062 59.601562 C 112.132812 59.601562 114.871094 62.339844 114.871094 65.6875 L 114.871094 84.109375 C 114.871094 87.453125 112.132812 90.1875 108.789062 90.1875 L 108.785156 90.1875 C 105.4375 90.1875 102.703125 87.453125 102.703125 84.109375 L 102.703125 65.6875 C 102.703125 62.339844 105.4375 59.601562 108.785156 59.601562 Z M 108.785156 59.601562 " fill-opacity="1" fill-rule="evenodd"/><g fill="#e6e7e8" fill-opacity="1"><g transform="translate(208.255921, 109.329956)"><g><path d="M 5.953125 -81.875 L 29.671875 -81.875 C 41.046875 -81.875 50.769531 -77.984375 58.84375 -70.203125 C 66.914062 -62.429688 70.953125 -52.691406 70.953125 -40.984375 C 70.953125 -29.203125 66.929688 -19.425781 58.890625 -11.65625 C 50.859375 -3.882812 41.117188 0 29.671875 0 L 5.953125 0 Z M 24.609375 -16.671875 L 27.484375 -16.671875 C 34.296875 -16.671875 39.867188 -18.96875 44.203125 -23.5625 C 48.535156 -28.164062 50.738281 -33.941406 50.8125 -40.890625 C 50.8125 -47.828125 48.644531 -53.613281 44.3125 -58.25 C 39.976562 -62.882812 34.367188 -65.203125 27.484375 -65.203125 L 24.609375 -65.203125 Z M 24.609375 -16.671875 "/></g></g></g><g fill="#e6e7e8" fill-opacity="1"><g transform="translate(281.48011, 109.329956)"><g><path d="M 52.796875 -81.875 L 52.796875 -65.5 L 24.609375 -65.5 L 24.609375 -49.21875 L 51.609375 -49.21875 L 51.609375 -32.84375 L 24.609375 -32.84375 L 24.609375 -16.375 L 52.796875 -16.375 L 52.796875 0 L 5.953125 0 L 5.953125 -81.875 Z M 52.796875 -81.875 "/></g></g></g><g fill="#e6e7e8" fill-opacity="1"><g transform="translate(339.027587, 109.329956)"><g><path d="M 24.609375 -50.8125 L 24.609375 0 L 5.953125 0 L 5.953125 -81.875 L 24.609375 -81.875 L 57.15625 -31.0625 L 57.359375 -31.0625 L 57.359375 -81.875 L 76.015625 -81.875 L 76.015625 0 L 57.359375 0 L 24.8125 -50.8125 Z M 24.609375 -50.8125 "/></g></g></g><g fill="#e6e7e8" fill-opacity="1"><g transform="translate(420.983119, 109.329956)"><g><path d="M 31.5625 0 L -2.78125 -81.875 L 18.265625 -81.875 L 38.90625 -28.078125 L 59.546875 -81.875 L 80.578125 -81.875 L 46.25 0 Z M 31.5625 0 "/></g></g></g><g fill="#e6e7e8" fill-opacity="1"><g transform="translate(498.771422, 109.329956)"><g><path d="M 5.953125 -81.875 L 31.359375 -81.875 C 39.035156 -81.875 45.15625 -80.234375 49.71875 -76.953125 C 54.28125 -73.679688 56.5625 -68.375 56.5625 -61.03125 C 56.5625 -52.820312 53.15625 -46.96875 46.34375 -43.46875 C 57.988281 -41.414062 63.8125 -34.535156 63.8125 -22.828125 C 63.8125 -15.941406 61.425781 -10.414062 56.65625 -6.25 C 51.894531 -2.082031 45.347656 0 37.015625 0 L 5.953125 0 Z M 24.609375 -49.8125 L 26.09375 -49.8125 C 30.257812 -49.8125 33.367188 -50.539062 35.421875 -52 C 37.472656 -53.457031 38.5 -55.835938 38.5 -59.140625 C 38.5 -64.703125 34.363281 -67.484375 26.09375 -67.484375 L 24.609375 -67.484375 Z M 24.609375 -14.390625 L 30.46875 -14.390625 C 39.59375 -14.390625 44.15625 -17.429688 44.15625 -23.515625 C 44.15625 -27.148438 43.015625 -29.757812 40.734375 -31.34375 C 38.453125 -32.9375 35.03125 -33.734375 30.46875 -33.734375 L 24.609375 -33.734375 Z M 24.609375 -14.390625 "/></g></g></g><g fill="#e6e7e8" fill-opacity="1"><g transform="translate(564.851801, 109.329956)"><g><path d="M 2.28125 -40.984375 C 2.28125 -52.828125 6.316406 -62.847656 14.390625 -71.046875 C 22.460938 -79.253906 32.1875 -83.359375 43.5625 -83.359375 C 55.007812 -83.359375 64.734375 -79.269531 72.734375 -71.09375 C 80.742188 -62.925781 84.75 -52.890625 84.75 -40.984375 C 84.75 -29.003906 80.8125 -18.929688 72.9375 -10.765625 C 65.0625 -2.597656 55.269531 1.484375 43.5625 1.484375 C 31.59375 1.484375 21.71875 -2.566406 13.9375 -10.671875 C 6.164062 -18.773438 2.28125 -28.878906 2.28125 -40.984375 Z M 22.421875 -40.984375 C 22.421875 -36.679688 23.082031 -32.757812 24.40625 -29.21875 C 25.726562 -25.6875 28.039062 -22.695312 31.34375 -20.25 C 34.65625 -17.800781 38.726562 -16.578125 43.5625 -16.578125 C 50.507812 -16.578125 55.75 -18.957031 59.28125 -23.71875 C 62.820312 -28.476562 64.59375 -34.234375 64.59375 -40.984375 C 64.59375 -47.660156 62.789062 -53.394531 59.1875 -58.1875 C 55.582031 -62.988281 50.375 -65.390625 43.5625 -65.390625 C 36.8125 -65.390625 31.597656 -62.988281 27.921875 -58.1875 C 24.253906 -53.394531 22.421875 -47.660156 22.421875 -40.984375 Z M 22.421875 -40.984375 "/></g></g></g><g fill="#e6e7e8" fill-opacity="1"><g transform="translate(651.86754, 109.329956)"><g><path d="M 0.796875 -65.5 L 0.796875 -81.875 L 58.34375 -81.875 L 58.34375 -65.5 L 38.90625 -65.5 L 38.90625 0 L 20.25 0 L 20.25 -65.5 Z M 0.796875 -65.5 "/></g></g></g><path fill="#fefefe" d="M 655.246094 72.523438 C 655.246094 74.011719 655.171875 75.496094 655.027344 76.980469 C 654.882812 78.460938 654.664062 79.929688 654.375 81.390625 C 654.085938 82.851562 653.726562 84.292969 653.296875 85.714844 C 652.867188 87.140625 652.367188 88.539062 651.800781 89.914062 C 651.234375 91.289062 650.601562 92.632812 649.902344 93.945312 C 649.203125 95.257812 648.441406 96.535156 647.617188 97.769531 C 646.796875 99.007812 645.914062 100.203125 644.972656 101.351562 C 644.03125 102.503906 643.039062 103.605469 641.992188 104.65625 C 640.941406 105.710938 639.847656 106.707031 638.699219 107.652344 C 637.554688 108.597656 636.367188 109.480469 635.132812 110.308594 C 633.902344 111.136719 632.632812 111.898438 631.324219 112.601562 C 630.019531 113.304688 628.679688 113.9375 627.3125 114.507812 C 625.941406 115.078125 624.546875 115.578125 623.128906 116.011719 C 621.710938 116.441406 620.277344 116.804688 618.824219 117.09375 C 617.367188 117.382812 615.90625 117.601562 614.429688 117.75 C 612.953125 117.894531 611.476562 117.96875 609.996094 117.96875 C 608.511719 117.96875 607.035156 117.894531 605.558594 117.75 C 604.085938 117.601562 602.621094 117.382812 601.167969 117.09375 C 599.714844 116.804688 598.277344 116.441406 596.859375 116.011719 C 595.441406 115.578125 594.046875 115.078125 592.679688 114.507812 C 591.308594 113.9375 589.972656 113.304688 588.664062 112.601562 C 587.355469 111.898438 586.085938 111.136719 584.855469 110.308594 C 583.621094 109.480469 582.433594 108.597656 581.289062 107.652344 C 580.144531 106.707031 579.046875 105.710938 577.996094 104.65625 C 576.949219 103.605469 575.957031 102.503906 575.015625 101.351562 C 574.074219 100.203125 573.195312 99.007812 572.371094 97.769531 C 571.546875 96.535156 570.785156 95.257812 570.085938 93.945312 C 569.390625 92.632812 568.757812 91.289062 568.1875 89.914062 C 567.621094 88.539062 567.125 87.140625 566.691406 85.714844 C 566.261719 84.292969 565.902344 82.851562 565.613281 81.390625 C 565.324219 79.929688 565.109375 78.460938 564.960938 76.980469 C 564.816406 75.496094 564.746094 74.011719 564.746094 72.523438 C 564.746094 71.035156 564.816406 69.550781 564.960938 68.070312 C 565.109375 66.589844 565.324219 65.117188 565.613281 63.660156 C 565.902344 62.199219 566.261719 60.757812 566.691406 59.332031 C 567.125 57.910156 567.621094 56.507812 568.1875 55.132812 C 568.757812 53.757812 569.390625 52.414062 570.085938 51.101562 C 570.785156 49.789062 571.546875 48.515625 572.371094 47.277344 C 573.195312 46.039062 574.074219 44.847656 575.015625 43.695312 C 575.957031 42.546875 576.949219 41.445312 577.996094 40.390625 C 579.046875 39.339844 580.144531 38.339844 581.289062 37.398438 C 582.433594 36.453125 583.621094 35.566406 584.855469 34.742188 C 586.085938 33.914062 587.355469 33.148438 588.664062 32.449219 C 589.972656 31.746094 591.308594 31.109375 592.679688 30.542969 C 594.046875 29.972656 595.441406 29.472656 596.859375 29.039062 C 598.277344 28.605469 599.714844 28.246094 601.167969 27.957031 C 602.621094 27.664062 604.085938 27.445312 605.558594 27.300781 C 607.035156 27.15625 608.511719 27.082031 609.996094 27.082031 C 611.476562 27.082031 612.953125 27.15625 614.429688 27.300781 C 615.90625 27.445312 617.367188 27.664062 618.824219 27.957031 C 620.277344 28.246094 621.710938 28.605469 623.128906 29.039062 C 624.546875 29.472656 625.941406 29.972656 627.3125 30.542969 C 628.679688 31.109375 630.019531 31.746094 631.324219 32.449219 C 632.632812 33.148438 633.902344 33.914062 635.132812 34.742188 C 636.367188 35.566406 637.554688 36.453125 638.699219 37.398438 C 639.847656 38.339844 640.941406 39.339844 641.992188 40.390625 C 643.039062 41.445312 644.03125 42.546875 644.972656 43.695312 C 645.914062 44.847656 646.796875 46.039062 647.617188 47.277344 C 648.441406 48.515625 649.203125 49.789062 649.902344 51.101562 C 650.601562 52.414062 651.234375 53.757812 651.800781 55.132812 C 652.367188 56.507812 652.867188 57.910156 653.296875 59.332031 C 653.726562 60.757812 654.085938 62.199219 654.375 63.660156 C 654.664062 65.117188 654.882812 66.589844 655.027344 68.070312 C 655.171875 69.550781 655.246094 71.035156 655.246094 72.523438 Z M 655.246094 72.523438 " fill-opacity="1" fill-rule="nonzero"/><g clip-path="url(#53ae31c2e7)"><path fill="#212121" d="M 650.753906 24.40625 C 650.890625 24.050781 651.289062 23.871094 651.648438 24.011719 C 652 24.148438 652.179688 24.550781 652.042969 24.90625 C 652.011719 24.980469 642.328125 50.5625 618.6875 60.5 C 618.335938 60.644531 617.929688 60.480469 617.785156 60.125 C 617.636719 59.769531 617.804688 59.363281 618.15625 59.214844 C 641.25 49.511719 650.726562 24.480469 650.753906 24.40625 Z M 650.753906 24.40625 " fill-opacity="1" fill-rule="nonzero"/></g><g clip-path="url(#b9c1a5a72f)"><path fill="#ed3237" d="M 610.179688 26.042969 C 622.875 26.042969 634.367188 31.210938 642.683594 39.566406 C 651.003906 47.921875 656.148438 59.464844 656.148438 72.210938 C 656.148438 84.960938 651.003906 96.5 642.683594 104.855469 C 634.367188 113.210938 622.875 118.378906 610.179688 118.378906 C 597.484375 118.378906 585.992188 113.210938 577.671875 104.855469 C 569.351562 96.5 564.207031 84.960938 564.207031 72.210938 C 564.207031 59.464844 569.351562 47.921875 577.671875 39.566406 C 585.992188 31.210938 597.484375 26.042969 610.179688 26.042969 Z M 638 44.273438 C 630.878906 37.121094 621.042969 32.699219 610.179688 32.699219 C 599.3125 32.699219 589.476562 37.121094 582.355469 44.273438 C 575.238281 51.421875 570.832031 61.300781 570.832031 72.210938 C 570.832031 83.125 575.238281 93 582.355469 100.152344 C 589.476562 107.300781 599.3125 111.722656 610.179688 111.722656 C 621.042969 111.722656 630.878906 107.300781 638 100.152344 C 645.121094 93 649.523438 83.125 649.523438 72.210938 C 649.523438 61.300781 645.121094 51.421875 638 44.273438 Z M 638 44.273438 " fill-opacity="1" fill-rule="nonzero"/></g><path fill="#212121" d="M 636.273438 58.46875 L 603.472656 58.46875 C 603.472656 58.46875 599.402344 57.382812 596.503906 58.597656 C 593.605469 59.816406 589.96875 63.03125 592.21875 69.8125 C 594.472656 76.589844 596.246094 71.722656 597.585938 70.074219 C 598.929688 68.417969 601.308594 74.070312 602.433594 74.765625 C 603.558594 75.460938 604.898438 77.546875 610.960938 69.113281 L 612.429688 67.726562 C 612.429688 67.726562 628.746094 69.855469 640.429688 61.859375 C 630.996094 61.25 629.4375 61.078125 629.4375 61.078125 C 629.4375 61.078125 632.726562 60.554688 636.273438 58.46875 Z M 608.015625 67.421875 L 605.246094 67.246094 L 606.847656 70.722656 C 606.847656 70.722656 608.753906 67.570312 608.015625 67.421875 Z M 608.015625 67.421875 " fill-opacity="1" fill-rule="evenodd"/><path fill="#212121" d="M 617 65.816406 C 617.019531 65.433594 617.347656 65.140625 617.726562 65.164062 C 618.109375 65.183594 618.398438 65.515625 618.378906 65.894531 L 617.660156 77.445312 L 640.238281 99.515625 C 640.511719 99.785156 640.515625 100.222656 640.253906 100.496094 C 639.988281 100.773438 639.550781 100.777344 639.273438 100.511719 L 616.484375 78.230469 C 616.335938 78.09375 616.25 77.894531 616.261719 77.679688 Z M 617 65.816406 " fill-opacity="1" fill-rule="nonzero"/><path fill="#212121" d="M 609.722656 67.144531 C 609.542969 66.808594 609.667969 66.386719 610 66.203125 C 610.335938 66.019531 610.753906 66.144531 610.9375 66.480469 L 614.21875 72.476562 L 641.824219 88.113281 C 642.15625 88.300781 642.273438 88.71875 642.085938 89.054688 C 641.902344 89.386719 641.480469 89.503906 641.148438 89.316406 L 613.414062 73.613281 C 613.285156 73.550781 613.171875 73.453125 613.097656 73.316406 C 613.09375 73.300781 610.066406 67.777344 609.722656 67.144531 Z M 609.722656 67.144531 " fill-opacity="1" fill-rule="nonzero"/><path fill="#212121" d="M 596.1875 68.421875 C 596.136719 68.042969 596.40625 67.695312 596.78125 67.644531 C 597.160156 67.59375 597.507812 67.863281 597.558594 68.242188 L 600.328125 89.277344 C 600.335938 89.351562 600.332031 89.429688 600.320312 89.5 C 600.210938 90.203125 597.761719 105.964844 592.417969 113.578125 C 592.199219 113.894531 591.765625 113.96875 591.453125 113.75 C 591.140625 113.527344 591.066406 113.09375 591.289062 112.78125 C 596.324219 105.597656 598.734375 90.707031 598.945312 89.359375 Z M 596.1875 68.421875 " fill-opacity="1" fill-rule="nonzero"/><path fill="#212121" d="M 596.265625 74.480469 C 596.265625 74.765625 596.238281 75.046875 596.183594 75.324219 C 596.128906 75.605469 596.046875 75.875 595.9375 76.136719 C 595.828125 76.398438 595.699219 76.648438 595.539062 76.882812 C 595.382812 77.121094 595.203125 77.339844 595.003906 77.539062 C 594.804688 77.742188 594.585938 77.917969 594.351562 78.078125 C 594.117188 78.234375 593.867188 78.367188 593.609375 78.476562 C 593.347656 78.585938 593.078125 78.667969 592.800781 78.722656 C 592.523438 78.777344 592.242188 78.804688 591.960938 78.804688 C 591.675781 78.804688 591.398438 78.777344 591.121094 78.722656 C 590.84375 78.667969 590.574219 78.585938 590.3125 78.476562 C 590.050781 78.367188 589.800781 78.234375 589.566406 78.078125 C 589.332031 77.917969 589.113281 77.742188 588.914062 77.539062 C 588.714844 77.339844 588.535156 77.121094 588.378906 76.882812 C 588.222656 76.648438 588.089844 76.398438 587.980469 76.136719 C 587.875 75.875 587.792969 75.605469 587.738281 75.324219 C 587.679688 75.046875 587.652344 74.765625 587.652344 74.480469 C 587.652344 74.199219 587.679688 73.917969 587.738281 73.636719 C 587.792969 73.359375 587.875 73.089844 587.980469 72.828125 C 588.089844 72.5625 588.222656 72.316406 588.378906 72.078125 C 588.535156 71.84375 588.714844 71.625 588.914062 71.425781 C 589.113281 71.222656 589.332031 71.042969 589.566406 70.886719 C 589.800781 70.726562 590.050781 70.59375 590.3125 70.488281 C 590.574219 70.378906 590.84375 70.296875 591.121094 70.242188 C 591.398438 70.183594 591.675781 70.15625 591.960938 70.15625 C 592.242188 70.15625 592.523438 70.183594 592.800781 70.242188 C 593.078125 70.296875 593.347656 70.378906 593.609375 70.488281 C 593.867188 70.59375 594.117188 70.726562 594.351562 70.886719 C 594.585938 71.042969 594.804688 71.222656 595.003906 71.425781 C 595.203125 71.625 595.382812 71.84375 595.539062 72.078125 C 595.699219 72.316406 595.828125 72.5625 595.9375 72.828125 C 596.046875 73.089844 596.128906 73.359375 596.183594 73.636719 C 596.238281 73.917969 596.265625 74.199219 596.265625 74.480469 Z M 596.265625 74.480469 " fill-opacity="1" fill-rule="nonzero"/><path fill="#212121" d="M 602.660156 60.707031 C 602.71875 61.082031 602.460938 61.4375 602.085938 61.5 C 601.710938 61.558594 601.355469 61.300781 601.296875 60.921875 C 601.289062 60.882812 599.058594 46.96875 600.257812 46.300781 C 601.21875 45.765625 612.839844 53.464844 620.097656 58.273438 L 620.101562 58.277344 C 622.308594 59.738281 624.109375 60.933594 624.980469 61.492188 C 625.300781 61.695312 625.394531 62.125 625.191406 62.445312 C 624.988281 62.769531 624.558594 62.863281 624.238281 62.660156 C 623.210938 62 621.46875 60.84375 619.339844 59.433594 C 612.347656 54.796875 601.160156 47.382812 600.929688 47.515625 C 600.570312 47.714844 602.652344 60.667969 602.660156 60.707031 Z M 602.660156 60.707031 " fill-opacity="1" fill-rule="nonzero"/><path fill="#212121" d="M 604.007812 59.847656 C 603.992188 60.230469 603.667969 60.527344 603.285156 60.507812 C 602.90625 60.488281 602.613281 60.164062 602.628906 59.78125 L 603.0625 50.875 C 603.078125 50.492188 603.40625 50.195312 603.785156 50.214844 C 604.046875 50.226562 604.269531 50.386719 604.375 50.609375 C 604.390625 50.632812 608.507812 59.378906 608.742188 59.734375 C 608.953125 60.050781 608.867188 60.484375 608.550781 60.695312 C 608.230469 60.910156 607.800781 60.824219 607.589844 60.503906 C 607.402344 60.226562 605.566406 56.359375 604.308594 53.703125 Z M 604.007812 59.847656 " fill-opacity="1" fill-rule="nonzero"/><path fill="#212121" d="M 609.980469 59.28125 C 609.964844 59.660156 609.644531 59.957031 609.261719 59.941406 C 608.882812 59.925781 608.585938 59.601562 608.601562 59.21875 L 608.992188 50.746094 C 609.007812 50.363281 609.328125 50.066406 609.710938 50.082031 C 609.824219 50.085938 609.933594 50.121094 610.027344 50.175781 C 610.066406 50.195312 623.515625 58.007812 625.910156 58.808594 C 626.269531 58.929688 626.464844 59.320312 626.347656 59.683594 C 626.226562 60.046875 625.835938 60.246094 625.476562 60.125 C 623.347656 59.414062 613.484375 53.769531 610.320312 51.945312 Z M 609.980469 59.28125 " fill-opacity="1" fill-rule="nonzero"/><path fill="#212121" d="M 589.089844 74.121094 C 589.46875 74.171875 589.730469 74.523438 589.679688 74.902344 C 589.628906 75.28125 589.277344 75.546875 588.902344 75.496094 C 588.871094 75.488281 577.671875 73.992188 569.945312 67.566406 C 569.652344 67.320312 569.613281 66.878906 569.855469 66.585938 C 570.097656 66.289062 570.535156 66.25 570.828125 66.492188 C 578.25 72.667969 589.058594 74.117188 589.089844 74.121094 Z M 589.089844 74.121094 " fill-opacity="1" fill-rule="nonzero"/><path fill="#212121" d="M 589.703125 74.828125 C 590.050781 74.671875 590.460938 74.824219 590.617188 75.171875 C 590.777344 75.519531 590.625 75.929688 590.277344 76.089844 C 590.265625 76.097656 585.539062 78.292969 582.097656 79.089844 C 581.722656 79.175781 581.355469 78.941406 581.269531 78.570312 C 581.183594 78.195312 581.414062 77.824219 581.789062 77.738281 C 585.09375 76.972656 589.691406 74.835938 589.703125 74.828125 Z M 589.703125 74.828125 " fill-opacity="1" fill-rule="nonzero"/><g clip-path="url(#af8a57fc92)"><path fill="#212121" d="M 626.445312 61.421875 C 626.066406 61.40625 625.769531 61.085938 625.78125 60.703125 C 625.796875 60.320312 626.113281 60.019531 626.496094 60.035156 C 626.566406 60.039062 651.554688 61.3125 659.035156 30.402344 C 659.125 30.03125 659.496094 29.804688 659.867188 29.894531 C 660.238281 29.984375 660.46875 30.359375 660.378906 30.730469 C 652.625 62.75 626.523438 61.421875 626.445312 61.421875 Z M 626.445312 61.421875 " fill-opacity="1" fill-rule="nonzero"/></g><g clip-path="url(#3365f3aabc)"><path fill="#212121" d="M 594.957031 63.734375 C 595.214844 64.015625 595.199219 64.457031 594.914062 64.714844 C 594.636719 64.972656 594.199219 64.957031 593.941406 64.671875 L 587.03125 57.160156 L 583.746094 73.683594 C 583.691406 73.960938 583.476562 74.167969 583.21875 74.226562 L 559.4375 80.304688 C 559.066406 80.398438 558.691406 80.175781 558.59375 79.804688 C 558.503906 79.429688 558.726562 79.050781 559.09375 78.957031 L 582.472656 72.980469 L 585.9375 55.550781 C 585.964844 55.410156 586.035156 55.277344 586.148438 55.175781 C 586.429688 54.914062 586.867188 54.933594 587.125 55.214844 Z M 594.957031 63.734375 " fill-opacity="1" fill-rule="nonzero"/></g><path fill="#212121" d="M 590.078125 76.152344 C 590.078125 76.152344 588.5625 81.152344 585.015625 83.414062 C 581.464844 85.671875 569.695312 91.277344 569.695312 91.277344 C 575.472656 89.9375 584.957031 84.390625 586.53125 83.671875 C 588.433594 82.804688 593.019531 76.066406 593.019531 76.066406 Z M 590.078125 76.152344 " fill-opacity="1" fill-rule="evenodd"/><path fill="#ed3237" d="M 642.683594 44.273438 L 582.355469 104.855469 L 577.671875 100.152344 L 638 39.566406 Z M 642.683594 44.273438 " fill-opacity="1" fill-rule="nonzero"/></svg>